<?xml version="1.0" encoding="UTF-8"?>
<svg version="1.1" xmlns="http://www.w3.org/2000/svg" width="560" height="560">
<path d="M0 0 C184.8 0 369.6 0 560 0 C560 184.8 560 369.6 560 560 C375.2 560 190.4 560 0 560 C0 375.2 0 190.4 0 0 Z " fill="#C1BEB4" transform="translate(0,0)"/>
<path d="M0 0 C184.8 0 369.6 0 560 0 C560 184.8 560 369.6 560 560 C375.2 560 190.4 560 0 560 C0 375.2 0 190.4 0 0 Z M14 99 C14 209.55 14 320.1 14 434 C21.31657366 433.33485694 27.56355238 432.5863434 34.5 430.69921875 C36.34641729 430.2167546 38.19302518 429.73501951 40.03979492 429.25390625 C41.49245255 428.87129639 41.49245255 428.87129639 42.97445679 428.48095703 C63.24951944 423.16376607 83.64279419 418.62460401 104.1875 414.5 C105.42491943 414.25124115 106.66233887 414.0024823 107.93725586 413.7461853 C114.90618372 412.34925901 121.87875506 410.97203694 128.85516357 409.61297607 C130.89021124 409.21631458 132.92494265 408.81802562 134.95928955 408.41778564 C146.76954233 406.09460356 158.577799 404.03210027 170.5 402.375 C171.25368866 402.26916595 172.00737732 402.16333191 172.78390503 402.05429077 C196.13660293 398.78432975 219.46959172 397.28171591 243 396 C243.12818115 396.7734375 243.2563623 397.546875 243.38842773 398.34375 C244.8552179 404.71447936 251.56458448 410.31026427 256.8125 413.9375 C266.31465972 419.21232095 277.36050044 419.95594103 288 419 C296.57492927 416.33838213 304.82466682 408.89809528 309 401 C308.77603995 398.77920905 308.77603995 398.77920905 308 397 C302.61670988 396.58766288 298.34582102 396.60075186 293.4375 399 C284.11196867 403.13976983 272.20014697 401.98619557 262.6875 398.94921875 C261 398 261 398 260 395 C270.17366999 395.19479635 280.3469775 395.40301877 290.52005196 395.62686634 C295.2474806 395.73049866 299.97491058 395.8300636 304.70263672 395.91918945 C344.14432967 396.66869342 382.74302916 399.99096645 421.37304688 408.44042969 C425.23553968 409.26318373 429.11452591 409.9827274 433 410.6875 C436.78430845 411.38051122 440.5302053 412.07962742 444.25 413.0625 C448.44559456 414.11139864 452.63924231 414.8103826 456.90625 415.5 C465.30070622 416.85667979 473.34027681 418.47499968 481.4375 421.125 C485.50263065 422.12345314 488.83140698 422.14626642 493 422 C493 422.66 493 423.32 493 424 C502.3295818 426.34848435 511.66336182 428.67973619 521 431 C522.43448486 431.35843994 522.43448486 431.35843994 523.89794922 431.72412109 C526.22187921 432.30275415 528.54778421 432.8722539 530.875 433.4375 C532.13054688 433.74558594 533.38609375 434.05367188 534.6796875 434.37109375 C538.41930548 435.18610279 538.41930548 435.18610279 544 435 C544 324.12 544 213.24 544 99 C528.16 99 512.32 99 496 99 C496 115.83 496 132.66 496 150 C481.60060362 144.46177062 481.60060362 144.46177062 475.77734375 142.08984375 C455.45014492 133.87630726 434.90024725 126.61694456 414 120 C412.97519531 119.67418945 411.95039063 119.34837891 410.89453125 119.01269531 C384.35069883 110.69141451 356.97979329 106.08858761 329.50390625 102.1640625 C328.77698578 102.06022247 328.05006531 101.95638245 327.30111694 101.84939575 C304.5734127 98.22394736 304.5734127 98.22394736 283 104 C278.88983871 106.28603257 276.66141178 106.08766275 272 105 C265.0617284 102.0617284 265.0617284 102.0617284 263 100 C238.78461341 97.88375561 212.54075541 103.93276937 189 109 C187.73945801 109.2676416 186.47891602 109.5352832 185.18017578 109.81103516 C149.47043931 117.45292917 115.20710462 129.43965063 80.80078125 141.53125 C79.97203995 141.82249756 79.14329865 142.11374512 78.28944397 142.41381836 C72.17820343 144.56890064 66.08674735 146.77675939 60 149 C60.00222061 148.38834488 60.00444122 147.77668976 60.00672913 147.14649963 C60.02878122 140.80429669 60.04390627 134.46210456 60.05493164 128.11987305 C60.05997341 125.75007688 60.06680665 123.38028385 60.07543945 121.01049805 C60.0875119 117.61245961 60.09322971 114.21446215 60.09765625 110.81640625 C60.10281754 109.74975235 60.10797882 108.68309845 60.11329651 107.5841217 C60.11337204 106.60318039 60.11344757 105.62223907 60.11352539 104.61157227 C60.115746 103.74331314 60.11796661 102.87505402 60.12025452 101.98048401 C60.21954667 99.99856319 60.21954667 99.99856319 59 99 C44.15 99 29.3 99 14 99 Z " fill="#3C3C36" transform="translate(0,0)"/>
<path d="M0 0 C1.2686792 -0.02102783 1.2686792 -0.02102783 2.56298828 -0.04248047 C9.56424597 0.01187929 17.58171885 1.20671885 22.75 6.375 C24.02235082 10.19205246 23.88451461 13.76968463 23.87025452 17.74613953 C23.87153615 19.04242876 23.87153615 19.04242876 23.87284368 20.36490566 C23.87449572 23.27153021 23.86898159 26.17809753 23.86352539 29.0847168 C23.86324343 31.16395059 23.86340142 33.24318448 23.8639679 35.32241821 C23.86425554 40.97702758 23.85836415 46.63161586 23.85139394 52.28622031 C23.84515489 58.19193653 23.84455616 64.09765319 23.84336853 70.00337219 C23.84025685 81.19118103 23.83204564 92.37898013 23.82201904 103.56678468 C23.81085287 116.30179808 23.80534618 129.03681194 23.80032361 141.77182901 C23.7898629 167.97289141 23.77226659 194.17394516 23.75 220.375 C22.94607441 220.36750544 22.14214882 220.36001087 21.31386185 220.3522892 C13.60007701 220.28362454 5.88644776 220.23276556 -1.82756686 220.20013392 C-5.78994587 220.18279188 -9.752065 220.15942262 -13.71429443 220.12039185 C-39.17822812 219.87637004 -63.41142305 221.95266031 -88.50463867 226.56201172 C-93.09182296 227.37863121 -97.68598381 227.9608464 -102.31640625 228.46875 C-108.92576287 229.19382268 -115.42225888 230.16815513 -121.9375 231.5 C-123.48630859 231.81324219 -123.48630859 231.81324219 -125.06640625 232.1328125 C-142.73035604 235.82503953 -160.2357397 240.66830114 -177.46875 246.00390625 C-180.19930275 246.8400284 -182.3697818 247.375 -185.25 247.375 C-185.25 182.035 -185.25 116.695 -185.25 49.375 C-171.27214514 43.55089381 -171.27214514 43.55089381 -164.4375 41.0625 C-163.6345752 40.76891602 -162.83165039 40.47533203 -162.00439453 40.17285156 C-152.9060388 36.86277313 -143.77088192 33.66237506 -134.61035156 30.52880859 C-131.61930942 29.50180589 -128.63260029 28.46295959 -125.64642334 27.42192078 C-95.08887312 16.80008294 -64.12571569 8.89938747 -32.25 3.375 C-31.24775391 3.19710937 -30.24550781 3.01921875 -29.21289062 2.8359375 C-19.47484358 1.13767601 -9.89152343 0.1098477 0 0 Z " fill="#3C3A33" transform="translate(245.25,118.625)"/>
<path d="M0 0 C0.99708984 0.2180127 1.99417969 0.43602539 3.02148438 0.66064453 C14.6240373 3.21392485 25.81078269 6.41678642 37.02636719 10.32421875 C40.90359853 11.65180118 44.82924443 12.82078924 48.75 14.01171875 C53.73580153 15.52783388 58.70798847 17.08686719 63.6796875 18.6484375 C66.72280517 19.60372039 69.77033013 20.54344065 72.8203125 21.4765625 C80.76546939 23.92261903 88.54077307 26.45596536 96.171875 29.78125 C100.266718 31.54587848 104.43308419 33.11044794 108.6015625 34.69140625 C113.08462081 36.41764135 117.53966722 38.21586689 122 40 C122 105.34 122 170.68 122 238 C116.83065893 238 114.5871699 237.71499625 110 236 C102.61806722 233.54553051 95.75882845 231.64656904 88 231 C87.67 230.67 87.34 230.34 87 230 C85.5144577 229.64267785 84.01688507 229.33491722 82.515625 229.05078125 C81.1534082 228.789021 81.1534082 228.789021 79.76367188 228.52197266 C78.85166016 228.34972168 77.93964844 228.1774707 77 228 C75.47371314 227.70308056 73.94765888 227.40496214 72.421875 227.10546875 C71.66632324 226.95730713 70.91077148 226.80914551 70.13232422 226.65649414 C69.34615723 226.50172607 68.55999023 226.34695801 67.75 226.1875 C66.45666748 225.93311157 66.45666748 225.93311157 65.13720703 225.67358398 C60.73933384 224.79519903 56.3649768 223.8677875 52.0078125 222.8046875 C38.81161839 219.5982661 25.58922207 217.46999628 12.14794922 215.61157227 C11.06358078 215.46048759 11.06358078 215.46048759 9.95730591 215.30635071 C7.97177391 215.03120094 5.9854197 214.76200343 3.99902344 214.49316406 C1 214 1 214 -1 213 C-4.60718501 212.76523486 -8.20806309 212.60708705 -11.8203125 212.48242188 C-15.82290606 212.30504942 -19.54886745 211.92342334 -23.44873047 210.98852539 C-29.85286578 209.67556481 -36.14904753 209.74919036 -42.6640625 209.8046875 C-43.79416748 209.80670166 -44.92427246 209.80871582 -46.08862305 209.81079102 C-50.26745728 209.82117147 -54.44623318 209.84909334 -58.625 209.875 C-72.670625 209.936875 -72.670625 209.936875 -87 210 C-87 184.92 -87 159.84 -87 134 C-66.22173593 134 -66.22173593 134 -59.5546875 134.515625 C-58.77976959 134.57114029 -58.00485168 134.62665558 -57.20645142 134.68385315 C-54.76181576 134.86325838 -52.31842154 135.05479278 -49.875 135.25 C-48.59991577 135.3498671 -48.59991577 135.3498671 -47.29907227 135.45175171 C-34.43356851 136.47317449 -21.76529507 137.91371725 -9.08984375 140.39794922 C-5.56454528 141.08484761 -2.03282204 141.73184481 1.5 142.37890625 C16.55079861 145.16197877 31.41667855 148.43568393 46.23291016 152.28857422 C50.74781232 153.44936696 55.27802655 154.54354777 59.8125 155.625 C60.6586084 155.82714111 61.5047168 156.02928223 62.37646484 156.23754883 C69.29886873 157.87243146 76.25093055 159.35116214 83.22583008 160.74462891 C88.89562636 161.89562636 88.89562636 161.89562636 90 163 C90.08790975 165.29151417 90.10694038 167.58572524 90.09765625 169.87890625 C90.09553383 170.90889992 90.09553383 170.90889992 90.09336853 171.95970154 C90.08775479 174.16067801 90.07520007 176.36155409 90.0625 178.5625 C90.05748676 180.05143083 90.05292355 181.54036324 90.04882812 183.02929688 C90.03778093 186.68623075 90.02050713 190.34310558 90 194 C83.37529219 193.38859188 77.09142109 192.22803313 70.625 190.6875 C68.66690489 190.23334667 66.70856708 189.7802386 64.75 189.328125 C63.29400391 188.99071289 63.29400391 188.99071289 61.80859375 188.64648438 C49.42007169 185.79488437 36.99807779 183.41121492 24.44580078 181.39428711 C19.95004641 180.67084549 15.48053148 179.91097862 11.0234375 178.9765625 C5.44731217 177.83645636 -0.1625275 177.16128296 -5.8125 176.5 C-11.99307114 175.76814317 -18.13639734 174.98555285 -24.2734375 173.9453125 C-31.76587146 172.76910623 -39.24206852 172.55116323 -46.8125 172.375 C-48.1985885 172.33668245 -49.58465672 172.2976236 -50.97070312 172.2578125 C-54.313608 172.16463048 -57.65678459 172.08128099 -61 172 C-61.33 177.28 -61.66 182.56 -62 188 C-58.9990625 187.9690625 -58.9990625 187.9690625 -55.9375 187.9375 C-41.53607387 187.89976127 -27.10338948 188.31991578 -12.8515625 190.46875 C-8.16098225 191.11572659 -3.4658251 191.52386854 1.25 191.9375 C17.08542878 193.38783437 32.40845486 196.15870308 47.87890625 199.81640625 C52.15323022 200.8229196 56.4429533 201.70566603 60.75170898 202.55102539 C63.59942777 203.1197033 66.42421913 203.7688326 69.25 204.4375 C70.34828125 204.69015625 71.4465625 204.9428125 72.578125 205.203125 C74.88378849 205.74006033 77.18589306 206.29248484 79.484375 206.859375 C80.64453125 207.13265625 81.8046875 207.4059375 83 207.6875 C84.03125 207.93886719 85.0625 208.19023437 86.125 208.44921875 C91.69699145 209.24120544 97.37200465 209 103 209 C103.495 179.795 103.495 179.795 104 150 C101.03 149.67 98.06 149.34 95 149 C93.0963704 148.31582023 91.19340539 147.62666151 89.31933594 146.86523438 C84.05915457 144.90290987 78.55627031 143.64726762 73.125 142.25 C72.46247223 142.07869568 71.79994446 141.90739136 71.11734009 141.730896 C54.87121956 137.54787459 38.45484633 134.24272275 22 131 C20.26938677 130.65436848 18.53889905 130.30810729 16.80859375 129.9609375 C15.20574718 129.64053489 13.60288176 129.32022655 12 129 C11.02861084 128.8055127 10.05722168 128.61102539 9.05639648 128.41064453 C-3.93064535 125.82227237 -16.8274886 123.40046221 -30 122 C-30.02933699 117.54168078 -30.04691123 113.08338682 -30.0625 108.625 C-30.07087891 107.37332031 -30.07925781 106.12164062 -30.08789062 104.83203125 C-30.10624691 97.8199299 -29.90041679 90.95767386 -29 84 C-15.44451841 85.33561363 -2.28096676 88.02989616 11 91 C11.65192322 91.14542236 12.30384644 91.29084473 12.9755249 91.44067383 C28.69148832 94.9526939 44.3278238 98.54968254 59.68994141 103.41430664 C67.05537414 105.74618098 74.47399839 107.81752902 81.9375 109.8125 C83.02224609 110.10261963 84.10699219 110.39273926 85.22460938 110.69165039 C90.80642848 112.17503194 96.39596204 113.59899051 102 115 C102 95.2 102 75.4 102 55 C99.03 54.01 99.03 54.01 96 53 C94.88625 52.4225 93.7725 51.845 92.625 51.25 C47.51654285 28.13728577 -9.22363743 20.669198 -59 15 C-59 20.94 -59 26.88 -59 33 C-57.12183594 32.97808594 -55.24367188 32.95617187 -53.30859375 32.93359375 C-46.50616643 32.94002761 -39.82586334 33.35597535 -33.0625 34.0625 C-31.88333008 34.18536377 -30.70416016 34.30822754 -29.48925781 34.43481445 C-15.34728675 36.07864687 -1.81821685 39.54544579 12 43 C11.67 53.56 11.34 64.12 11 75 C-0 73 -0 73 -3.703125 72.2890625 C-23.88955762 68.50966432 -44.47470038 65.78191618 -65 65 C-65 70.28 -65 75.56 -65 81 C-59.06 81 -53.12 81 -47 81 C-47 93.54 -47 106.08 -47 119 C-67.70608108 119 -67.70608108 119 -77.125 118 C-78.09308594 117.90460938 -79.06117188 117.80921875 -80.05859375 117.7109375 C-82.3733061 117.48175806 -84.68691068 117.244923 -87 117 C-87.03068233 105.5208446 -87.05100568 94.04169056 -87.0625 82.5625 C-87.06335602 81.71365108 -87.06421204 80.86480217 -87.06509399 79.99023056 C-87.09093443 50.98110612 -86.80477056 21.99956465 -86 -7 C-84.906875 -7.309375 -83.81375 -7.61875 -82.6875 -7.9375 C-56.70197863 -15.42485361 -25.61870104 -5.68674706 0 0 Z " fill="#393731" transform="translate(374,128)"/>
<path d="M0 0 C0.74886475 0.00523682 1.49772949 0.01047363 2.26928711 0.01586914 C3.07817383 0.0190918 3.88706055 0.02231445 4.72045898 0.02563477 C5.99566406 0.03820312 5.99566406 0.03820312 7.29663086 0.05102539 C8.15063477 0.05553711 9.00463867 0.06004883 9.88452148 0.06469727 C12.00108749 0.07652166 14.11761771 0.0944577 16.23413086 0.11352539 C16.25778217 25.18858286 16.27526468 50.26363858 16.28594303 75.33870506 C16.29103905 86.9887467 16.29797605 98.63878123 16.30957031 110.28881836 C16.40746192 210.56552151 16.40746192 210.56552151 15.23413086 258.11352539 C11.66745313 258.14552162 8.56225866 258.13551068 5.13256836 257.12524414 C4.40046143 256.91488525 3.66835449 256.70452637 2.9140625 256.48779297 C2.15343506 256.26115967 1.39280762 256.03452637 0.60913086 255.80102539 C-0.98811991 255.33868477 -2.58577842 254.87775049 -4.18383789 254.41821289 C-4.96162598 254.19359375 -5.73941406 253.96897461 -6.54077148 253.73754883 C-10.49037181 252.62989265 -14.48318747 251.70575762 -18.48071289 250.78930664 C-20.76586914 250.11352539 -20.76586914 250.11352539 -23.76586914 248.11352539 C-26.50044661 247.49958318 -29.19515897 246.96067316 -31.95336914 246.48852539 C-32.70295898 246.35446289 -33.45254883 246.22040039 -34.22485352 246.08227539 C-36.07074842 245.7530712 -37.91817223 245.43246042 -39.76586914 245.11352539 C-39.76586914 244.45352539 -39.76586914 243.79352539 -39.76586914 243.11352539 C-40.93150391 242.98647217 -42.09713867 242.85941895 -43.2980957 242.72851562 C-47.37930695 242.21699141 -51.26897683 241.32050257 -55.25024414 240.27368164 C-63.46459071 238.15935333 -71.71278617 236.28264461 -80.01586914 234.55102539 C-80.74110779 234.39911743 -81.46634644 234.24720947 -82.21356201 234.09069824 C-93.4804497 231.75373034 -104.6531464 230.06448929 -116.13012695 229.08789062 C-121.9758975 228.58349088 -127.6588964 227.79733234 -133.41040039 226.64086914 C-142.33535827 224.87311932 -151.26189876 224.07832713 -160.32836914 223.42602539 C-161.17262451 223.36248871 -162.01687988 223.29895203 -162.88671875 223.23348999 C-182.17620358 221.80463091 -201.43619904 221.8010846 -220.76586914 222.11352539 C-220.76586914 222.77352539 -220.76586914 223.43352539 -220.76586914 224.11352539 C-224.06586914 224.11352539 -227.36586914 224.11352539 -230.76586914 224.11352539 C-230.35614883 217.83114734 -228.47812653 212.25961764 -224.76586914 207.11352539 C-221.45336914 205.98852539 -221.45336914 205.98852539 -218.76586914 206.11352539 C-218.76586914 205.45352539 -218.76586914 204.79352539 -218.76586914 204.11352539 C-215.98506 203.32930523 -213.50452162 202.98382776 -210.6184082 202.96826172 C-209.80946106 202.96188187 -209.00051392 202.95550201 -208.16705322 202.94892883 C-207.29731873 202.94781601 -206.42758423 202.94670319 -205.53149414 202.94555664 C-204.62067078 202.94222824 -203.70984741 202.93889984 -202.77142334 202.93547058 C-200.83809919 202.93040785 -198.90476631 202.92806205 -196.97143555 202.92822266 C-194.06812246 202.92606424 -191.16520734 202.90798047 -188.26196289 202.88891602 C-177.22710728 202.8548686 -166.67964364 203.49589942 -155.76586914 205.11352539 C-153.27592178 205.41943693 -150.78501183 205.71761253 -148.29321289 206.00805664 C-118.61939855 209.56906961 -89.73416059 214.472918 -60.7746582 221.84594727 C-55.41154623 223.2086071 -50.03827197 224.52881738 -44.66430664 225.84790039 C-41.90721484 226.52713746 -39.15031419 227.20714296 -36.39352417 227.88760376 C-34.61133283 228.32711162 -32.82888513 228.76558135 -31.0461731 229.20297241 C-28.56482194 229.81296892 -26.08510059 230.42919743 -23.60571289 231.04711914 C-22.86892303 231.2269635 -22.13213318 231.40680786 -21.37301636 231.59210205 C-16.1711066 232.89797136 -16.1711066 232.89797136 -13.84156799 234.13710022 C-11.49757762 235.23973184 -9.58786449 235.51158462 -7.01586914 235.73852539 C-6.21665039 235.81329102 -5.41743164 235.88805664 -4.59399414 235.96508789 C-3.68907227 236.03856445 -3.68907227 236.03856445 -2.76586914 236.11352539 C-2.76725183 234.29821744 -2.76725183 234.29821744 -2.76866245 232.44623661 C-2.79029879 203.74807887 -2.80679887 175.04992125 -2.81693447 146.3517572 C-2.81818525 142.82304645 -2.81947956 139.29433572 -2.82080078 135.765625 C-2.82119425 134.71182676 -2.82119425 134.71182676 -2.82159566 133.63673966 C-2.82595243 122.24662621 -2.83384001 110.85651778 -2.84302194 99.46640731 C-2.85235829 87.78772453 -2.85784981 76.10904469 -2.85995764 64.43035835 C-2.86126519 57.86699965 -2.86435383 51.30365237 -2.8715992 44.74029732 C-2.8783553 38.57051803 -2.88048694 32.40075492 -2.87897682 26.23097229 C-2.87925334 23.9592982 -2.88126087 21.68762359 -2.88507462 19.41595268 C-2.89000547 16.32904439 -2.88886969 13.24219825 -2.88612366 10.1552887 C-2.89049292 8.78809868 -2.89049292 8.78809868 -2.89495045 7.39328867 C-2.87746048 0.18498813 -2.87746048 0.18498813 0 0 Z " fill="#36342F" transform="translate(512.765869140625,147.886474609375)"/>
<path d="M0 0 C5.28 0 10.56 0 16 0 C16.33 77.55 16.66 155.1 17 235 C21.29 234.01 25.58 233.02 30 232 C33.7538434 231.37030342 37.49892312 230.78316071 41.26953125 230.27148438 C45.31871985 229.65719993 48.91289628 228.7154385 52.7265625 227.21484375 C61.61805493 223.84446978 70.98929786 222.06351342 80.25 220 C81.23121826 219.77900635 82.21243652 219.5580127 83.22338867 219.33032227 C96.63534098 216.31101531 110.03601509 213.44865116 123.63061523 211.36889648 C126.25958591 210.95958431 128.88107381 210.51333529 131.50390625 210.06640625 C138.70251156 208.86262993 145.92063709 207.80513839 153.14477539 206.76782227 C155.43110397 206.4384215 157.71650589 206.10303189 160.00195312 205.76757812 C176.50159446 203.37173245 192.65411689 202.86809553 209.3125 202.9375 C211.42122289 202.94252579 213.52994695 202.94708678 215.63867188 202.95117188 C220.75914371 202.96209027 225.87955876 202.97929526 231 203 C231 203.66 231 204.32 231 205 C231.5775 205.0825 232.155 205.165 232.75 205.25 C235.86044533 206.28681511 237.01906335 207.35875113 239 210 C240.66808954 214.92929832 241.26664233 219.80047449 241 225 C239.41590006 224.88512252 237.83271037 224.75765492 236.25 224.625 C235.36828125 224.55539062 234.4865625 224.48578125 233.578125 224.4140625 C231 224 231 224 229.38867188 222.98852539 C225.74749462 221.48166452 222.08133681 221.73579348 218.203125 221.76953125 C217.33669373 221.76998947 216.47026245 221.77044769 215.57757568 221.7709198 C213.73838944 221.7739405 211.89920573 221.78182139 210.06005859 221.79418945 C207.30166095 221.81216337 204.54360569 221.81470079 201.78515625 221.81445312 C187.69780225 221.84178314 173.69514624 222.20100936 159.75 224.375 C158.88157471 224.50511475 158.01314941 224.63522949 157.1184082 224.76928711 C155.31698361 225.03967131 153.5159525 225.3126905 151.71533203 225.58837891 C148.97738966 226.00342753 146.2373606 226.40052347 143.49609375 226.79296875 C141.72653406 227.04928291 139.95700179 227.30578643 138.1875 227.5625 C136.9794873 227.73434814 136.9794873 227.73434814 135.74707031 227.90966797 C132.13481111 228.44355533 128.63605755 229.06106078 125.11328125 230.02734375 C122.02219042 230.84413877 119.07498161 231.20668214 115.88671875 231.4375 C109.04845606 231.98183932 102.4917864 233.48196121 95.8125 235 C94.44502646 235.30612307 93.0774285 235.61169082 91.7097168 235.91674805 C88.7509259 236.57792082 85.79316032 237.2434714 82.8359375 237.91162109 C78.54232213 238.88029452 74.24544718 239.83377451 69.94770813 240.78396606 C66.29759852 241.59137976 62.64839002 242.40281444 58.99935913 243.21508789 C57.21545213 243.6117323 55.43129413 244.00724965 53.6468811 244.40161133 C51.13473683 244.95761071 48.62388415 245.51911844 46.11328125 246.08203125 C45.36566528 246.24637161 44.61804932 246.41071198 43.84777832 246.58003235 C40.06745725 247.43365763 36.56644003 248.49065475 33 250 C31.23781275 250.34002388 29.46519532 250.62858679 27.6875 250.875 C21.84973814 251.77311721 16.21389228 253.13412606 10.52026367 254.67919922 C6.78005411 255.6671791 3.94478191 256 0 256 C0 171.52 0 87.04 0 0 Z " fill="#35332E" transform="translate(30,148)"/>
<path d="M0 0 C0 5.94 0 11.88 0 18 C-2.05734375 18.29132813 -4.1146875 18.58265625 -6.234375 18.8828125 C-29.79691769 22.27173476 -53.06407853 26.51810915 -76 33 C-76.33 43.23 -76.66 53.46 -77 64 C-73.720625 63.113125 -70.44125 62.22625 -67.0625 61.3125 C-44.7524777 55.4271726 -22.17040271 50.46734706 1 51 C1 56.61 1 62.22 1 68 C-0.70542969 68.17015625 -2.41085938 68.3403125 -4.16796875 68.515625 C-6.50786116 68.75995111 -8.84770215 69.00476997 -11.1875 69.25 C-12.85522461 69.41435547 -12.85522461 69.41435547 -14.55664062 69.58203125 C-24.4685639 70.63708191 -34.16580412 72.44562421 -43.9359436 74.39074707 C-47.20235896 75.04023679 -50.47055058 75.68023465 -53.73901367 76.31933594 C-59.89557186 77.52629171 -66.04788329 78.75355064 -72.19873047 79.98925781 C-74.71776417 80.49338813 -77.23761788 80.99343945 -79.75830078 81.48925781 C-98.46150659 85.17089525 -116.69779373 89.702707 -135 95 C-137.20497627 95.63284198 -139.41005089 96.26534139 -141.61523438 96.89746094 C-144.35226023 97.68321636 -147.08847419 98.47105036 -149.82165527 99.27008057 C-155.78592542 101 -155.78592542 101 -158 101 C-158 81.2 -158 61.4 -158 41 C-135.98070736 32.88762903 -135.98070736 32.88762903 -128.93359375 30.5703125 C-128.09810501 30.29367264 -127.26261627 30.01703278 -126.40180969 29.73200989 C-123.74889995 28.85719992 -121.09371567 27.98971715 -118.4375 27.125 C-117.51400757 26.82385284 -116.59051514 26.52270569 -115.63903809 26.21243286 C-85.16565223 16.31083631 -54.22158314 8.12359895 -22.50756836 3.3425293 C-17.28883972 2.55493434 -12.16861186 1.66274305 -7.04833984 0.3737793 C-5 0 -5 0 0 0 Z " fill="#C0BDB4" transform="translate(236,142)"/>
<path d="M0 0 C1.90608098 3.21182149 2.22266247 5.53882603 2.125 9.25 C2.10695312 10.14203125 2.08890625 11.0340625 2.0703125 11.953125 C2.04710937 12.62859375 2.02390625 13.3040625 2 14 C-4.01229308 16.21820856 -9.73491249 17.60353242 -16.08984375 18.359375 C-17.8433208 18.58580593 -19.59673633 18.8127137 -21.35009766 19.04003906 C-22.26043762 19.15512817 -23.17077759 19.27021729 -24.10870361 19.38879395 C-62.44729376 24.28420846 -100.26738557 32.82717473 -137.41687012 43.47024536 C-142.79618317 45 -142.79618317 45 -145 45 C-144.835 46.155 -144.67 47.31 -144.5 48.5 C-143.99990757 53.05881361 -143.85462111 57.60472271 -143.8125 62.1875 C-143.79960937 62.86425781 -143.78671875 63.54101562 -143.7734375 64.23828125 C-143.76500075 68.54102229 -144.42677137 72.00163632 -146 76 C-144.68611248 75.73598005 -143.37397661 75.46324636 -142.0625 75.1875 C-141.33160156 75.03667969 -140.60070312 74.88585937 -139.84765625 74.73046875 C-137.46661318 74.11969364 -135.23869306 73.39340438 -132.92480469 72.57763672 C-128.12590841 70.9691844 -123.32737913 69.94018202 -118.35546875 69.02734375 C-117.46442947 68.85876358 -116.5733902 68.69018341 -115.65534973 68.51649475 C-112.83379707 67.9843048 -110.01069384 67.46090518 -107.1875 66.9375 C-105.30653765 66.58322858 -103.42567732 66.22841505 -101.54492188 65.87304688 C-92.37882878 64.14754236 -83.20759053 62.49036761 -74 61 C-72.02321571 60.66798452 -70.04665728 60.33462178 -68.0703125 60 C-66.08854167 59.66666667 -64.10677083 59.33333333 -62.125 59 C-61.15175781 58.835 -60.17851562 58.67 -59.17578125 58.5 C-46.3379988 56.34634842 -33.62425113 54.67515572 -20.625 53.875 C-19.32433594 53.78863281 -18.02367187 53.70226562 -16.68359375 53.61328125 C-10.42027568 53.21104981 -4.28915181 53 2 53 C2 58.28 2 63.56 2 69 C-4.26171875 69.5859375 -4.26171875 69.5859375 -6.40214539 69.78610229 C-9.98805628 70.12160026 -13.57383448 70.45844519 -17.15942383 70.79736328 C-29.87086674 71.99747373 -29.87086674 71.99747373 -35.5 72.46875 C-63.2835627 74.83440009 -90.75852021 79.09675469 -118 85 C-120.53770346 85.53672771 -123.07546424 86.07318448 -125.61328125 86.609375 C-128.05504563 87.13375181 -130.49646649 87.65973138 -132.9375 88.1875 C-134.05141113 88.42525146 -135.16532227 88.66300293 -136.31298828 88.90795898 C-142.70766354 90.31524014 -142.70766354 90.31524014 -148.81640625 92.61328125 C-152 94 -152 94 -159 95 C-159 74.21 -159 53.42 -159 32 C-44.77226068 -0.7106708 -44.77226068 -0.7106708 0 0 Z " fill="#C3BFB7" transform="translate(236,246)"/>
<path d="M0 0 C16.47053346 2.43067344 32.35109483 7.95867199 48.13085938 13.09619141 C52.4064768 14.44305455 56.70631521 15.71189456 61 17 C61 27.23 61 37.46 61 48 C49.7589752 45.75179504 49.7589752 45.75179504 45.80859375 44.44921875 C44.93517334 44.16530273 44.06175293 43.88138672 43.16186523 43.58886719 C42.26282471 43.29141602 41.36378418 42.99396484 40.4375 42.6875 C38.50043198 42.05986313 36.56292657 41.43357467 34.625 40.80859375 C33.67496094 40.50163574 32.72492188 40.19467773 31.74609375 39.87841797 C21.74182771 36.67826246 11.71481079 33.78967141 1.44140625 31.578125 C-1 31 -1 31 -3 30 C-2.85795259 28.41632253 -2.71119847 26.83306682 -2.5625 25.25 C-2.48128906 24.36828125 -2.40007812 23.4865625 -2.31640625 22.578125 C-2 20 -2 20 -1.5 18.08203125 C-0.68539828 14.68997877 -0.62461453 11.22235485 -0.4375 7.75 C-0.39431641 7.00492188 -0.35113281 6.25984375 -0.30664062 5.4921875 C-0.20103275 3.661651 -0.10005799 1.83084824 0 0 Z " fill="#3C3933" transform="translate(403,176)"/>
<path d="M0 0 C0.79692838 10.03275911 1.12847075 19.93645782 1 30 C-0.28390625 30.27972656 -1.5678125 30.55945313 -2.890625 30.84765625 C-13.23281214 33.16902975 -23.22513772 35.87672469 -33.16113281 39.58813477 C-38.37876914 41.52199388 -43.53770116 42.93301798 -49 44 C-49.19222407 39.90707083 -49.3709507 35.81379909 -49.53710938 31.71972656 C-49.59555965 30.32666167 -49.65771628 28.9337472 -49.72363281 27.54101562 C-49.81766015 25.54079773 -49.89732059 23.53992068 -49.9765625 21.5390625 C-50.02893066 20.33459473 -50.08129883 19.13012695 -50.13525391 17.88916016 C-50 15 -50 15 -48 13 C-46.36954828 12.35937512 -44.70993359 11.7918976 -43.0390625 11.265625 C-42.01893066 10.94134521 -40.99879883 10.61706543 -39.94775391 10.28295898 C-38.85124512 9.94208252 -37.75473633 9.60120605 -36.625 9.25 C-34.95123291 8.72418335 -34.95123291 8.72418335 -33.24365234 8.18774414 C-30.94861447 7.46905468 -28.65254188 6.75366147 -26.35546875 6.04150391 C-23.23381411 5.07257356 -20.11670955 4.09016071 -17 3.10546875 C-15.20867113 2.54839177 -13.41702269 1.99234101 -11.625 1.4375 C-10.79436035 1.17420898 -9.9637207 0.91091797 -9.10791016 0.63964844 C-3.34511313 -1.11503771 -3.34511313 -1.11503771 0 0 Z " fill="#3C3932" transform="translate(142,180)"/>
<path d="M0 0 C0.33 0 0.66 0 1 0 C1 47.19 1 94.38 1 143 C-1.31 142.67 -3.62 142.34 -6 142 C-5.2884375 140.824375 -5.2884375 140.824375 -4.5625 139.625 C-2.00611959 135.33028091 -1.93629838 132.92584443 -2.0625 127.99609375 C-2 125 -2 125 -1.50892639 121.04212952 C-0.87659511 115.47025423 -0.8253215 109.93273751 -0.79467773 104.32983398 C-0.78477814 103.19710556 -0.77487854 102.06437714 -0.76467896 100.89732361 C-0.73327427 97.18026772 -0.70839023 93.46319909 -0.68359375 89.74609375 C-0.66300604 87.15820497 -0.6420091 84.57031942 -0.62062073 81.98243713 C-0.57120246 75.88412856 -0.52588912 69.78580234 -0.48259836 63.68744761 C-0.43304378 56.73933675 -0.37819383 49.79127076 -0.32291877 42.84320343 C-0.2094243 28.56217784 -0.10251571 14.28110841 0 0 Z " fill="#292822" transform="translate(267,196)"/>
<path d="M0 0 C0.99 0 1.98 0 3 0 C2.814375 1.11375 2.62875 2.2275 2.4375 3.375 C1.68319343 6.82568861 1.68319343 6.82568861 3 9 C2.76312442 10.61544881 2.52229452 12.23041066 2.26220703 13.84228516 C1.74416605 18.10527046 1.89865721 22.39985345 1.9375 26.6875 C1.94201172 27.62400391 1.94652344 28.56050781 1.95117188 29.52539062 C1.95983885 31.2600229 1.97057259 32.9946471 1.98413086 34.72924805 C2.0054395 37.77835058 2.00212709 40.82605092 1.96484375 43.875 C1.95582031 44.90625 1.94679688 45.9375 1.9375 47 C1.92589844 48.03125 1.91429687 49.0625 1.90234375 50.125 C1.88562278 52.8534996 1.88562278 52.8534996 2.49560547 54.83325195 C3.58061869 59.49418725 3.18475522 64.4253142 3.1875 69.1875 C3.19974609 70.28642578 3.21199219 71.38535156 3.22460938 72.51757812 C3.23621711 79.00630223 2.67574778 84.72753695 1 91 C1.66 91 2.32 91 3 91 C2.34 95.29 1.68 99.58 1 104 C0.67 104 0.34 104 0 104 C0 69.68 0 35.36 0 0 Z " fill="#E3E1D8" transform="translate(530,195)"/>
<path d="M0 0 C11.88 0 23.76 0 36 0 C29.32606373 6.67393627 25.5489846 6.22150001 16.58813477 6.25976562 C10.68073163 6.19396613 5.49228131 5.26708418 0 3 C0 2.01 0 1.02 0 0 Z " fill="#262325" transform="translate(261,396)"/>
<path d="M0 0 C0.7211499 0.00141495 1.4422998 0.0028299 2.18530273 0.00428772 C4.45691324 0.00982244 6.72842 0.02236202 9 0.03515625 C10.55338398 0.04017971 12.10676952 0.04474113 13.66015625 0.04882812 C17.44014328 0.05977036 21.22005414 0.07698865 25 0.09765625 C25 0.42765625 25 0.75765625 25 1.09765625 C19.64410527 1.68718096 14.2940418 2.1023589 8.91015625 2.31640625 C7.54636841 2.37163452 7.54636841 2.37163452 6.1550293 2.42797852 C4.33774263 2.49803989 2.52017831 2.5613155 0.70239258 2.61694336 C-7.49230117 2.93580006 -14.77101312 4.01976621 -22 8.09765625 C-21.8125 5.72265625 -21.8125 5.72265625 -21 3.09765625 C-15.06086997 -0.50181649 -6.74864104 -0.05118205 0 0 Z " fill="#2B2922" transform="translate(310,351.90234375)"/>
<path d="M0 0 C0.33 0 0.66 0 1 0 C1 25.41 1 50.82 1 77 C4.465 76.505 4.465 76.505 8 76 C6.25 77.5625 6.25 77.5625 4 79 C2.68 78.67 1.36 78.34 0 78 C0 52.26 0 26.52 0 0 Z " fill="#ADAAA2" transform="translate(59,289)"/>
<path d="M0 0 C0.33 0 0.66 0 1 0 C1 13.53 1 27.06 1 41 C-3 39 -3 39 -5 37 C-4.01 36.34 -3.02 35.68 -2 35 C-1.50370736 31.75071334 -1.50370736 31.75071334 -1.5234375 27.91015625 C-1.50785797 27.20982773 -1.49227844 26.50949921 -1.47622681 25.78794861 C-1.42863541 23.54614422 -1.4009347 21.30465074 -1.375 19.0625 C-1.33847499 16.82414167 -1.29778737 14.58595806 -1.25234985 12.34776306 C-1.21271941 10.31409616 -1.18493802 8.28020872 -1.15771484 6.24633789 C-1 3 -1 3 0 0 Z " fill="#393933" transform="translate(495,109)"/>
<path d="M0 0 C16.17 0 32.34 0 49 0 C49 0.99 49 1.98 49 3 C44.33333333 3 39.66666667 3 35 3 C35.33 2.67 35.66 2.34 36 2 C24.45 1.67 12.9 1.34 1 1 C0.67 1.66 0.34 2.32 0 3 C0 2.01 0 1.02 0 0 Z " fill="#64615C" transform="translate(260,395)"/>
<path d="M0 0 C0.99 0 1.98 0 3 0 C2.814375 1.11375 2.62875 2.2275 2.4375 3.375 C1.68319343 6.82568861 1.68319343 6.82568861 3 9 C2.76312442 10.61544881 2.52229452 12.23041066 2.26220703 13.84228516 C1.74416605 18.10527046 1.89865721 22.39985345 1.9375 26.6875 C1.94201172 27.62400391 1.94652344 28.56050781 1.95117188 29.52539062 C1.95983885 31.2600229 1.97057259 32.9946471 1.98413086 34.72924805 C1.99873826 36.81945435 2 38.90974266 2 41 C1.34 41.66 0.68 42.32 0 43 C0 28.81 0 14.62 0 0 Z " fill="#DCDBD1" transform="translate(530,195)"/>
<path d="M0 0 C0.66 0 1.32 0 2 0 C1.67 0.99 1.34 1.98 1 3 C-1.62036133 4.18261719 -1.62036133 4.18261719 -5.08203125 5.296875 C-6.32404297 5.69777344 -7.56605469 6.09867187 -8.84570312 6.51171875 C-9.82228882 6.81601807 -9.82228882 6.81601807 -10.81860352 7.12646484 C-12.79957542 7.7459582 -14.77174486 8.38894587 -16.74414062 9.03515625 C-27.33963778 12.40072027 -27.33963778 12.40072027 -31 11 C-21.95411075 7.47562757 -12.98525289 4.27001684 -3.59765625 1.76171875 C-1.09284832 1.25270395 -1.09284832 1.25270395 0 0 Z " fill="#2C2A26" transform="translate(144,118)"/>
<path d="M0 0 C0.96550781 0.14308594 1.93101562 0.28617187 2.92578125 0.43359375 C5.28467335 0.78392426 7.64264545 1.1394935 10 1.5 C10 1.83 10 2.16 10 2.5 C2.08 2.17 -5.84 1.84 -14 1.5 C-14 1.83 -14 2.16 -14 2.5 C-16.64 2.5 -19.28 2.5 -22 2.5 C-22 1.51 -22 0.52 -22 -0.5 C-14.91834744 -2.86055085 -7.21006161 -1.1038853 0 0 Z " fill="#4E4A46" transform="translate(391,321.5)"/>
<path d="M0 0 C0.66 0 1.32 0 2 0 C2.94137255 2.82411765 3.11725382 4.52918032 3.09765625 7.44921875 C3.09443359 8.29677734 3.09121094 9.14433594 3.08789062 10.01757812 C3.07951172 10.89865234 3.07113281 11.77972656 3.0625 12.6875 C3.05798828 13.58017578 3.05347656 14.47285156 3.04882812 15.39257812 C3.03704983 17.59511987 3.02060164 19.79752599 3 22 C2.34 22.33 1.68 22.66 1 23 C0.83210783 19.72922836 0.66589762 16.45837336 0.5 13.1875 C0.45230469 12.25873047 0.40460938 11.32996094 0.35546875 10.37304688 C0.31035156 9.48037109 0.26523437 8.58769531 0.21875 7.66796875 C0.17685547 6.84578857 0.13496094 6.0236084 0.09179688 5.17651367 C0.01907502 3.45227071 0 1.72577585 0 0 Z " fill="#26231F" transform="translate(265,126)"/>
<path d="M0 0 C2.31 0.33 4.62 0.66 7 1 C7 1.66 7 2.32 7 3 C9.97 3.33 12.94 3.66 16 4 C16 4.33 16 4.66 16 5 C8.25 5.125 8.25 5.125 6 4 C3.05909203 3.79097199 0.13204491 3.62510262 -2.8125 3.5 C-12.56406379 3.07974107 -12.56406379 3.07974107 -17 2 C-17 1.67 -17 1.34 -17 1 C-11.39 1.33 -5.78 1.66 0 2 C0 1.34 0 0.68 0 0 Z " fill="#5F5C55" transform="translate(367,337)"/>
<path d="M0 0 C6.6 0.33 13.2 0.66 20 1 C19.67 1.66 19.34 2.32 19 3 C12.95138867 4.35592652 7.05780276 4.00963379 1 3 C0.67 2.01 0.34 1.02 0 0 Z " fill="#262420" transform="translate(326,317)"/>
<path d="M0 0 C0.66 0.33 1.32 0.66 2 1 C2.10920422 8.74136601 1.97159933 16.31395526 1 24 C-0.5625 22.8125 -0.5625 22.8125 -2 21 C-1.72265625 18.83203125 -1.72265625 18.83203125 -1 16 C-0.72651707 13.23462587 -0.58874499 10.46197773 -0.4375 7.6875 C-0.39431641 6.94693359 -0.35113281 6.20636719 -0.30664062 5.44335938 C-0.20129568 3.62908536 -0.10021684 1.8145645 0 0 Z " fill="#292621" transform="translate(462,194)"/>
<path d="M0 0 C0.33 0 0.66 0 1 0 C1.04898437 1.14339844 1.09796875 2.28679687 1.1484375 3.46484375 C1.22345189 4.95575473 1.29900028 6.44663892 1.375 7.9375 C1.4059375 8.69224609 1.436875 9.44699219 1.46875 10.22460938 C1.5726315 12.15507395 1.77895614 14.07942081 2 16 C2.66 16.33 3.32 16.66 4 17 C3.40138258 19.35171131 2.73075648 21.6859378 2 24 C1.34 24.33 0.68 24.66 0 25 C0 16.75 0 8.5 0 0 Z " fill="#D0CEC9" transform="translate(14,140)"/>
<path d="M0 0 C9.41002278 -0.18451025 9.41002278 -0.18451025 14 1 C14.33 1.99 14.66 2.98 15 4 C10.1666528 4.08333357 5.76307437 3.95261487 1 3 C0.67 2.01 0.34 1.02 0 0 Z " fill="#282421" transform="translate(376,322)"/>
<path d="M0 0 C2 2 2 2 2.1953125 5.4765625 C2.18201493 6.85950968 2.15816232 8.24238654 2.125 9.625 C2.11597656 10.33140625 2.10695312 11.0378125 2.09765625 11.765625 C2.07407603 13.51056098 2.03820461 15.25532295 2 17 C-0.64 17 -3.28 17 -6 17 C-3 15 -3 15 -1 14 C-0.52998967 10.72444392 -0.52998967 10.72444392 -0.375 6.9375 C-0.26285156 5.00197266 -0.26285156 5.00197266 -0.1484375 3.02734375 C-0.09945312 2.02832031 -0.05046875 1.02929688 0 0 Z " fill="#322F2A" transform="translate(141,193)"/>
<path d="M0 0 C0.33 0 0.66 0 1 0 C1 9.57 1 19.14 1 29 C-1.475 28.01 -1.475 28.01 -4 27 C-3.5155542 26.61932373 -3.0311084 26.23864746 -2.53198242 25.84643555 C-0.45601345 23.34435534 -0.57359732 21.68197877 -0.48828125 18.45703125 C-0.45283203 17.38388672 -0.41738281 16.31074219 -0.38085938 15.20507812 C-0.35830078 14.08552734 -0.33574219 12.96597656 -0.3125 11.8125 C-0.27833984 10.68134766 -0.24417969 9.55019531 -0.20898438 8.38476562 C-0.12643686 5.5899426 -0.05730818 2.79543602 0 0 Z " fill="#1C1C18" transform="translate(494,120)"/>
<path d="M0 0 C-2.4444715 3.66670726 -3.81583412 3.93344791 -8 5 C-10.875 5.125 -10.875 5.125 -13 5 C-13 4.01 -13 3.02 -13 2 C-4.57142857 -0.28571429 -4.57142857 -0.28571429 0 0 Z " fill="#2F2C26" transform="translate(89,339)"/>
<path d="M0 0 C2.58396679 -0.08112454 5.16537568 -0.14054748 7.75 -0.1875 C8.47960937 -0.21263672 9.20921875 -0.23777344 9.9609375 -0.26367188 C13.34486604 -0.30981636 15.57858557 -0.25324128 18.515625 1.51171875 C19.00546875 2.00285156 19.4953125 2.49398438 20 3 C12.96517526 3.23668569 6.8165735 2.7879537 0 1 C0 0.67 0 0.34 0 0 Z " fill="#302E28" transform="translate(357,301)"/>
<path d="M0 0 C0.33 0 0.66 0 1 0 C1 8.25 1 16.5 1 25 C-0.65 24.67 -2.3 24.34 -4 24 C-3.34 23.67 -2.68 23.34 -2 23 C-1.0699111 20.2097333 -0.81301231 18.23470458 -0.68359375 15.33203125 C-0.64169922 14.43935547 -0.59980469 13.54667969 -0.55664062 12.62695312 C-0.51732422 11.69818359 -0.47800781 10.76941406 -0.4375 9.8125 C-0.39431641 8.87212891 -0.35113281 7.93175781 -0.30664062 6.96289062 C-0.20061335 4.64207146 -0.09854971 2.32114675 0 0 Z " fill="#262420" transform="translate(526,380)"/>
<path d="M0 0 C0.33 0 0.66 0 1 0 C2.19190363 8.34332544 2.09283549 16.59323022 2 25 C1.67 25 1.34 25 1 25 C0.67 21.7 0.34 18.4 0 15 C-0.33 15 -0.66 15 -1 15 C-0.67 10.05 -0.34 5.1 0 0 Z " fill="#9C968F" transform="translate(90,291)"/>
<path d="M0 0 C3.63 0.66 7.26 1.32 11 2 C11 2.66 11 3.32 11 4 C7.696686 4.88935377 4.37705625 5.46274105 1 6 C0.67 4.02 0.34 2.04 0 0 Z " fill="#2C2923" transform="translate(403,176)"/>
<path d="M0 0 C0.33 0 0.66 0 1 0 C1 4.95 1 9.9 1 15 C-1.97 14.505 -1.97 14.505 -5 14 C-4.54625 13.360625 -4.0925 12.72125 -3.625 12.0625 C-1.55458473 8.16056352 -0.79918586 4.31560367 0 0 Z " fill="#22201B" transform="translate(266,324)"/>
<path d="M0 0 C-1.4562545 0.67119549 -2.91507867 1.33681807 -4.375 2 C-5.59316406 2.556875 -5.59316406 2.556875 -6.8359375 3.125 C-9 4 -9 4 -11 4 C-11 4.99 -11 5.98 -11 7 C-11.66 7 -12.32 7 -13 7 C-12.4375 4.125 -12.4375 4.125 -11 1 C-6.89888151 -0.74677269 -4.22769953 -1.27575955 0 0 Z " fill="#323029" transform="translate(89,179)"/>
<path d="M0 0 C3.3 0 6.6 0 10 0 C10.33 0.66 10.66 1.32 11 2 C2.96428571 4.27678571 2.96428571 4.27678571 -1 3 C-0.67 2.01 -0.34 1.02 0 0 Z " fill="#2F2C27" transform="translate(342,397)"/>
<path d="M0 0 C0 0.33 0 0.66 0 1 C-1.65 1.33 -3.3 1.66 -5 2 C-5 2.33 -5 2.66 -5 3 C-9.95 3 -14.9 3 -20 3 C-20 2.67 -20 2.34 -20 2 C-13.25846717 0.74158054 -6.86515862 -0.26404456 0 0 Z " fill="#4C4944" transform="translate(162,323)"/>
<path d="M0 0 C3.96 0.33 7.92 0.66 12 1 C11.01 1.33 10.02 1.66 9 2 C9 2.99 9 3.98 9 5 C2.25 3.375 2.25 3.375 0 0 Z " fill="#2B2825" transform="translate(360,319)"/>
<path d="M0 0 C-0.98828125 1.45703125 -0.98828125 1.45703125 -3 3 C-5.79251583 3.37674518 -8.38779201 3.60191941 -11.1875 3.6875 C-11.93708984 3.72166016 -12.68667969 3.75582031 -13.45898438 3.79101562 C-15.30546838 3.87334294 -17.15270994 3.93835281 -19 4 C-13.5018812 0.33458746 -6.52793043 -0.34357529 0 0 Z " fill="#55514A" transform="translate(76,378)"/>
<path d="M0 0 C2.64 0 5.28 0 8 0 C8.28875 0.639375 8.5775 1.27875 8.875 1.9375 C9.82823451 4.15206079 9.82823451 4.15206079 12 5 C7.25081338 4.53439347 3.89217595 3.83067342 0 1 C0 0.67 0 0.34 0 0 Z " fill="#32302D" transform="translate(475,141)"/>
<path d="M0 0 C6.0546875 -0.1953125 6.0546875 -0.1953125 8 0 C8.66 0.66 9.32 1.32 10 2 C8 3 8 3 5.5625 3.4375 C2.77686528 3.88629903 2.77686528 3.88629903 0 6 C0 4.02 0 2.04 0 0 Z " fill="#292621" transform="translate(346,213)"/>
<path d="M0 0 C0 0.66 0 1.32 0 2 C-2.99480917 2.8723412 -5.63575911 3.10829766 -8.75 3.0625 C-9.54921875 3.05347656 -10.3484375 3.04445313 -11.171875 3.03515625 C-11.77515625 3.02355469 -12.3784375 3.01195312 -13 3 C-9.21656826 -0.94792877 -5.07874402 -0.29300446 0 0 Z " fill="#2C2923" transform="translate(138,364)"/>
<path d="M0 0 C0.33 0 0.66 0 1 0 C1.08090971 1.62418745 1.13914995 3.24951745 1.1875 4.875 C1.22230469 5.77992188 1.25710938 6.68484375 1.29296875 7.6171875 C1.19628906 8.40351563 1.09960938 9.18984375 1 10 C0.01 10.66 -0.98 11.32 -2 12 C-2.28571429 3.42857143 -2.28571429 3.42857143 0 0 Z " fill="#272521" transform="translate(462,299)"/>
<path d="M0 0 C0.66 0.99 1.32 1.98 2 3 C-3.28 2.67 -8.56 2.34 -14 2 C-14 1.67 -14 1.34 -14 1 C-2.91123779 -0.35287731 -2.91123779 -0.35287731 0 0 Z " fill="#9E9A8F" transform="translate(379,353)"/>
<path d="M0 0 C0.99 0.33 1.98 0.66 3 1 C3 3.87628285 2.71234806 6.22184257 2 9 C1.34 9.66 0.68 10.32 0 11 C0 7.37 0 3.74 0 0 Z " fill="#2D2A25" transform="translate(288,121)"/>
<path d="M0 0 C-2.54456151 2.96865509 -5.48994665 4.3619751 -9 6 C-8.625 3.5625 -8.625 3.5625 -8 1 C-5.29120665 -0.35439668 -2.99066732 -0.06501451 0 0 Z " fill="#26231B" transform="translate(297,354)"/>
<path d="M0 0 C-1.5 2.125 -1.5 2.125 -4 4 C-6.89070012 3.74623625 -9.21627986 2.92790671 -12 2 C-12 1.67 -12 1.34 -12 1 C-7.93631321 0.22596442 -4.13574827 -0.0984702 0 0 Z " fill="#2B2923" transform="translate(168,323)"/>
<path d="M0 0 C-1.0625 1.5 -1.0625 1.5 -3 3 C-7.36706908 3.38991688 -9.30513897 3.46324069 -13 1 C-8.60563789 0.14256349 -4.47427924 -0.08948558 0 0 Z " fill="#2B2722" transform="translate(183,321)"/>
<path d="M0 0 C4.10958767 1.45044271 7.43258745 3.51110752 11 6 C7.25 7.125 7.25 7.125 5 6 C5 5.34 5 4.68 5 4 C4.360625 3.71125 3.72125 3.4225 3.0625 3.125 C1 2 1 2 0 0 Z " fill="#302D28" transform="translate(250,409)"/>
<path d="M0 0 C0.89203125 0.10183594 1.7840625 0.20367187 2.703125 0.30859375 C3.37859375 0.39238281 4.0540625 0.47617187 4.75 0.5625 C4.75 0.8925 4.75 1.2225 4.75 1.5625 C3.16870971 1.78581199 1.58478911 1.99054644 0 2.1875 C-1.32257813 2.36152344 -1.32257813 2.36152344 -2.671875 2.5390625 C-5.47859878 2.56457817 -6.88384866 2.01093844 -9.25 0.5625 C-5.98086376 -0.46865279 -3.38958652 -0.4013984 0 0 Z " fill="#4A473F" transform="translate(153.25,343.4375)"/>
<path d="M0 0 C0.33 0 0.66 0 1 0 C1 2.97 1 5.94 1 9 C4.465 8.505 4.465 8.505 8 8 C6.25 9.5625 6.25 9.5625 4 11 C2.68 10.67 1.36 10.34 0 10 C0 6.7 0 3.4 0 0 Z " fill="#9F9A91" transform="translate(59,357)"/>
<path d="M0 0 C1.53445094 3.06890187 0.54984289 5.70094266 0 9 C-0.99 9 -1.98 9 -3 9 C-2.5020163 5.26512223 -2.12508244 3.18762365 0 0 Z " fill="#525045" transform="translate(288,355)"/>
<path d="M0 0 C0.99 0.33 1.98 0.66 3 1 C2.34 5.29 1.68 9.58 1 14 C0.67 14 0.34 14 0 14 C0 9.38 0 4.76 0 0 Z " fill="#E3E0D8" transform="translate(530,285)"/>
<path d="M0 0 C-0.33 0.99 -0.66 1.98 -1 3 C-2.84765625 3.73046875 -2.84765625 3.73046875 -5.0625 4.1875 C-5.79597656 4.34605469 -6.52945313 4.50460938 -7.28515625 4.66796875 C-8.13400391 4.83232422 -8.13400391 4.83232422 -9 5 C-8.67 4.01 -8.34 3.02 -8 2 C-5.27366306 0.89786379 -2.95855967 0 0 0 Z " fill="#312F2D" transform="translate(146,118)"/>
<path d="M0 0 C4.87362847 0.45336079 7.39042389 1.7089159 11 5 C6.43721973 5.36995516 6.43721973 5.36995516 4.375 3.625 C3.92125 3.08875 3.4675 2.5525 3 2 C2.01 1.34 1.02 0.68 0 0 Z " fill="#322F2A" transform="translate(259,98)"/>
<path d="M0 0 C-1.6875 1.5625 -1.6875 1.5625 -4 3 C-6.75 2.6875 -6.75 2.6875 -9 2 C-5.86501708 0.14223235 -3.62528568 -0.20140476 0 0 Z M-8 5 C-7.01 5.495 -7.01 5.495 -6 6 C-6.99 6.495 -6.99 6.495 -8 7 C-8 6.34 -8 5.68 -8 5 Z " fill="#48473F" transform="translate(70,166)"/>
<path d="M0 0 C-4.52092968 1.45606519 -7.51648796 0.27032841 -12 -1 C-12 -1.33 -12 -1.66 -12 -2 C-7.06729471 -3.6442351 -4.45975807 -2.18615592 0 0 Z " fill="#A29F97" transform="translate(452,413)"/>
<path d="M0 0 C2.64 0.33 5.28 0.66 8 1 C8 1.66 8 2.32 8 3 C5.36 2.67 2.72 2.34 0 2 C0 1.34 0 0.68 0 0 Z " fill="#B7B2AA" transform="translate(420,406)"/>
<path d="M0 0 C0.66 0 1.32 0 2 0 C2 1.65 2 3.3 2 5 C0.35 4.67 -1.3 4.34 -3 4 C-2.34 3.67 -1.68 3.34 -1 3 C-0.67 2.01 -0.34 1.02 0 0 Z " fill="#1F1D19" transform="translate(525,400)"/>
<path d="M0 0 C-3.90028225 2.60018816 -7.47434569 2.15085514 -12 2 C-7.89783794 -0.73477471 -4.73617773 -1.57872591 0 0 Z " fill="#A49F97" transform="translate(126,384)"/>
<path d="M0 0 C-0.33 0.99 -0.66 1.98 -1 3 C-3.31 2.34 -5.62 1.68 -8 1 C-4.93251126 -0.86240388 -3.40254489 -1.2151946 0 0 Z " fill="#53504A" transform="translate(93,374)"/>
<path d="M0 0 C0.66 0 1.32 0 2 0 C2 2.31 2 4.62 2 7 C1.01 7 0.02 7 -1 7 C-0.67 4.69 -0.34 2.38 0 0 Z " fill="#1A1913" transform="translate(324,239)"/>
<path d="M0 0 C0.33 0 0.66 0 1 0 C1 2.31 1 4.62 1 7 C-0.65 6.67 -2.3 6.34 -4 6 C-4 5.34 -4 4.68 -4 4 C-2.68 4 -1.36 4 0 4 C0 2.68 0 1.36 0 0 Z " fill="#231E19" transform="translate(383,195)"/>
<path d="M0 0 C1.65 0 3.3 0 5 0 C4.01 1.485 4.01 1.485 3 3 C2.34 3 1.68 3 1 3 C1 4.65 1 6.3 1 8 C0.67 8 0.34 8 0 8 C0 5.36 0 2.72 0 0 Z " fill="#2D2B25" transform="translate(61,168)"/>
</svg>
